<svg width="480" height="80" viewBox="0 0 480 80" fill="none" xmlns="http://www.w3.org/2000/svg">
<rect width="10" height="10" transform="translate(90)" fill="white"/>
<rect width="10" height="10" transform="translate(80)" fill="white"/>
<rect width="10" height="10" transform="translate(100)" fill="white"/>
<rect width="10" height="10" transform="translate(110)" fill="white"/>
<rect width="10" height="10" transform="translate(120)" fill="white"/>
<rect width="10" height="10" transform="translate(130)" fill="white"/>
<rect width="10" height="10" transform="translate(140)" fill="white"/>
<rect width="10" height="10" transform="translate(80 10)" fill="white"/>
<rect width="10" height="10" transform="translate(90 10)" fill="white"/>
<rect width="10" height="10" transform="translate(100 10)" fill="white"/>
<rect width="10" height="10" transform="translate(110 10)" fill="white"/>
<rect width="10" height="10" transform="translate(120 10)" fill="white"/>
<rect width="10" height="10" transform="translate(130 10)" fill="white"/>
<rect width="10" height="10" transform="translate(140 10)" fill="white"/>
<rect width="10" height="10" transform="translate(80 20)" fill="white"/>
<rect width="10" height="10" transform="translate(90 20)" fill="white"/>
<rect width="10" height="10" transform="translate(100 20)" fill="white"/>
<rect width="10" height="10" transform="translate(110 20)" fill="#4E4E4E"/>
<rect width="10" height="10" transform="translate(120 20)" fill="#4E4E4E"/>
<rect width="10" height="10" transform="translate(130 20)" fill="#4E4E4E"/>
<rect width="10" height="10" transform="translate(140 20)" fill="#4E4E4E"/>
<rect width="10" height="10" transform="translate(80 30)" fill="white"/>
<rect width="10" height="10" transform="translate(90 30)" fill="white"/>
<rect width="10" height="10" transform="translate(100 30)" fill="white"/>
<rect width="10" height="10" transform="translate(120 30)" fill="white"/>
<rect width="10" height="10" transform="translate(110 30)" fill="white"/>
<rect width="10" height="10" transform="translate(130 30)" fill="white"/>
<rect width="10" height="10" transform="translate(140 30)" fill="white"/>
<rect width="10" height="10" transform="translate(80 40)" fill="white"/>
<rect width="10" height="10" transform="translate(90 40)" fill="white"/>
<rect width="10" height="10" transform="translate(100 40)" fill="white"/>
<rect width="10" height="10" transform="translate(120 40)" fill="#4E4E4E"/>
<rect width="10" height="10" transform="translate(110 40)" fill="#4E4E4E"/>
<rect width="10" height="10" transform="translate(130 40)" fill="#4E4E4E"/>
<rect width="10" height="10" transform="translate(140 40)" fill="#4E4E4E"/>
<rect width="10" height="10" transform="translate(80 50)" fill="white"/>
<rect width="10" height="10" transform="translate(90 50)" fill="white"/>
<rect width="10" height="10" transform="translate(100 50)" fill="white"/>
<rect width="10" height="10" transform="translate(110 50)" fill="white"/>
<rect width="10" height="10" transform="translate(120 50)" fill="white"/>
<rect width="10" height="10" transform="translate(130 50)" fill="white"/>
<rect width="10" height="10" transform="translate(140 50)" fill="white"/>
<rect width="10" height="10" transform="translate(80 60)" fill="white"/>
<rect width="10" height="10" transform="translate(90 60)" fill="white"/>
<rect width="10" height="10" transform="translate(100 60)" fill="white"/>
<rect width="10" height="10" transform="translate(110 60)" fill="white"/>
<rect width="10" height="10" transform="translate(120 60)" fill="white"/>
<rect width="10" height="10" transform="translate(130 60)" fill="white"/>
<rect width="10" height="10" transform="translate(140 60)" fill="white"/>
<rect width="10" height="10" transform="translate(140 70)" fill="#4E4E4E"/>
<rect width="10" height="10" transform="translate(90 70)" fill="#4E4E4E"/>
<rect width="10" height="10" transform="translate(80 70)" fill="#4E4E4E"/>
<rect width="10" height="10" transform="translate(100 70)" fill="#4E4E4E"/>
<rect width="10" height="10" transform="translate(110 70)" fill="#4E4E4E"/>
<rect width="10" height="10" transform="translate(120 70)" fill="#4E4E4E"/>
<rect width="10" height="10" transform="translate(130 70)" fill="#4E4E4E"/>
<rect width="10" height="10" transform="translate(250)" fill="white"/>
<rect width="10" height="10" transform="translate(290)" fill="white"/>
<rect width="10" height="10" transform="translate(240)" fill="white"/>
<rect width="10" height="10" transform="translate(280)" fill="white"/>
<rect width="10" height="10" transform="translate(240 10)" fill="white"/>
<rect width="10" height="10" transform="translate(280 10)" fill="white"/>
<rect width="10" height="10" transform="translate(250 10)" fill="white"/>
<rect width="10" height="10" transform="translate(290 10)" fill="white"/>
<rect width="10" height="10" transform="translate(260 10)" fill="white"/>
<rect width="10" height="10" transform="translate(300 10)" fill="white"/>
<rect width="10" height="10" transform="translate(240 20)" fill="white"/>
<rect width="10" height="10" transform="translate(270 20)" fill="white"/>
<rect width="10" height="10" transform="translate(250 20)" fill="white"/>
<rect width="10" height="10" transform="translate(280 20)" fill="white"/>
<rect width="10" height="10" transform="translate(260 20)" fill="white"/>
<rect width="10" height="10" transform="translate(290 20)" fill="white"/>
<rect width="10" height="10" transform="translate(300 20)" fill="white"/>
<rect width="10" height="10" transform="translate(240 30)" fill="white"/>
<rect width="10" height="10" transform="translate(270 30)" fill="white"/>
<rect width="10" height="10" transform="translate(250 30)" fill="white"/>
<rect width="10" height="10" transform="translate(280 30)" fill="white"/>
<rect width="10" height="10" transform="translate(260 30)" fill="white"/>
<rect width="10" height="10" transform="translate(290 30)" fill="white"/>
<rect width="10" height="10" transform="translate(300 30)" fill="white"/>
<rect width="10" height="10" transform="translate(240 40)" fill="white"/>
<rect width="10" height="10" transform="translate(270 40)" fill="white"/>
<rect width="10" height="10" transform="translate(250 40)" fill="white"/>
<rect width="10" height="10" transform="translate(280 40)" fill="white"/>
<rect width="10" height="10" transform="translate(260 40)" fill="white"/>
<rect width="10" height="10" transform="translate(260 50)" fill="#4E4E4E"/>
<rect width="10" height="10" transform="translate(280 50)" fill="#4E4E4E"/>
<rect width="10" height="10" transform="translate(290 40)" fill="white"/>
<rect width="10" height="10" transform="translate(300 40)" fill="white"/>
<rect width="10" height="10" transform="translate(240 50)" fill="white"/>
<rect width="10" height="10" transform="translate(290 50)" fill="white"/>
<rect width="10" height="10" transform="translate(250 50)" fill="white"/>
<rect width="10" height="10" transform="translate(300 50)" fill="white"/>
<rect width="10" height="10" transform="translate(270 50)" fill="white"/>
<rect width="10" height="10" transform="translate(270 60)" fill="white"/>
<rect width="10" height="10" transform="translate(240 60)" fill="white"/>
<rect width="10" height="10" transform="translate(290 60)" fill="white"/>
<rect width="10" height="10" transform="translate(240 70)" fill="#4E4E4E"/>
<rect width="10" height="10" transform="translate(290 70)" fill="#4E4E4E"/>
<rect width="10" height="10" transform="translate(250 60)" fill="white"/>
<rect width="10" height="10" transform="translate(300 60)" fill="white"/>
<rect width="10" height="10" transform="translate(250 70)" fill="#4E4E4E"/>
<rect width="10" height="10" transform="translate(300 70)" fill="#4E4E4E"/>
<rect width="10" height="10" transform="translate(270 70)" fill="#4E4E4E"/>
<rect width="10" height="10" transform="translate(330)" fill="white"/>
<rect width="10" height="10" transform="translate(340)" fill="white"/>
<rect width="10" height="10" transform="translate(350)" fill="white"/>
<rect width="10" height="10" transform="translate(360)" fill="white"/>
<rect width="10" height="10" transform="translate(320 10)" fill="white"/>
<rect width="10" height="10" transform="translate(330 10)" fill="white"/>
<rect width="10" height="10" transform="translate(340 10)" fill="white"/>
<rect width="10" height="10" transform="translate(350 10)" fill="white"/>
<rect width="10" height="10" transform="translate(350 20)" fill="#4E4E4E"/>
<rect width="10" height="10" transform="translate(370 10)" fill="white"/>
<rect width="10" height="10" transform="translate(360 10)" fill="white"/>
<rect width="10" height="10" transform="translate(380 10)" fill="white"/>
<rect width="10" height="10" transform="translate(370)" fill="white"/>
<rect width="10" height="10" transform="translate(320 20)" fill="white"/>
<rect width="10" height="10" transform="translate(330 20)" fill="white"/>
<rect width="10" height="10" transform="translate(340 20)" fill="white"/>
<rect width="10" height="10" transform="translate(360 20)" fill="white"/>
<rect width="10" height="10" transform="translate(370 20)" fill="white"/>
<rect width="10" height="10" transform="translate(380 20)" fill="white"/>
<rect width="10" height="10" transform="translate(320 30)" fill="white"/>
<rect width="10" height="10" transform="translate(330 30)" fill="white"/>
<rect width="10" height="10" transform="translate(340 30)" fill="white"/>
<rect width="10" height="10" transform="translate(360 30)" fill="white"/>
<rect width="10" height="10" transform="translate(370 30)" fill="white"/>
<rect width="10" height="10" transform="translate(380 30)" fill="white"/>
<rect width="10" height="10" transform="translate(320 40)" fill="white"/>
<rect width="10" height="10" transform="translate(330 40)" fill="white"/>
<rect width="10" height="10" transform="translate(340 40)" fill="white"/>
<rect width="10" height="10" transform="translate(360 40)" fill="white"/>
<rect width="10" height="10" transform="translate(370 40)" fill="white"/>
<rect width="10" height="10" transform="translate(380 40)" fill="white"/>
<rect width="10" height="10" transform="translate(320 50)" fill="white"/>
<rect width="10" height="10" transform="translate(330 50)" fill="white"/>
<rect width="10" height="10" transform="translate(340 50)" fill="white"/>
<rect width="10" height="10" transform="translate(350 50)" fill="white"/>
<rect width="10" height="10" transform="translate(360 50)" fill="white"/>
<rect width="10" height="10" transform="translate(370 50)" fill="white"/>
<rect width="10" height="10" transform="translate(380 50)" fill="white"/>
<rect width="10" height="10" transform="translate(320 60)" fill="#4E4E4E"/>
<rect width="10" height="10" transform="translate(330 60)" fill="white"/>
<rect width="10" height="10" transform="translate(340 60)" fill="white"/>
<rect width="10" height="10" transform="translate(350 60)" fill="white"/>
<rect width="10" height="10" transform="translate(360 60)" fill="white"/>
<rect width="10" height="10" transform="translate(370 60)" fill="white"/>
<rect width="10" height="10" transform="translate(380 60)" fill="#4E4E4E"/>
<rect width="10" height="10" transform="translate(330 70)" fill="#4E4E4E"/>
<rect width="10" height="10" transform="translate(340 70)" fill="#4E4E4E"/>
<rect width="10" height="10" transform="translate(350 70)" fill="#4E4E4E"/>
<rect width="10" height="10" transform="translate(360 70)" fill="#4E4E4E"/>
<rect width="10" height="10" transform="translate(370 70)" fill="#4E4E4E"/>
<rect width="10" height="10" transform="translate(170)" fill="white"/>
<rect width="10" height="10" transform="translate(160)" fill="white"/>
<rect width="10" height="10" transform="translate(180)" fill="white"/>
<rect width="10" height="10" transform="translate(190)" fill="white"/>
<rect width="10" height="10" transform="translate(200)" fill="white"/>
<rect width="10" height="10" transform="translate(160 10)" fill="white"/>
<rect width="10" height="10" transform="translate(170 10)" fill="white"/>
<rect width="10" height="10" transform="translate(180 10)" fill="white"/>
<rect width="10" height="10" transform="translate(190 10)" fill="white"/>
<rect width="10" height="10" transform="translate(190 20)" fill="#4E4E4E"/>
<rect width="10" height="10" transform="translate(210 10)" fill="white"/>
<rect width="10" height="10" transform="translate(200 10)" fill="white"/>
<rect width="10" height="10" transform="translate(220 10)" fill="white"/>
<rect width="10" height="10" transform="translate(210)" fill="white"/>
<rect width="10" height="10" transform="translate(160 20)" fill="white"/>
<rect width="10" height="10" transform="translate(170 20)" fill="white"/>
<rect width="10" height="10" transform="translate(180 20)" fill="white"/>
<rect width="10" height="10" transform="translate(200 20)" fill="white"/>
<rect width="10" height="10" transform="translate(210 20)" fill="white"/>
<rect width="10" height="10" transform="translate(220 20)" fill="white"/>
<rect width="10" height="10" transform="translate(160 30)" fill="white"/>
<rect width="10" height="10" transform="translate(170 30)" fill="white"/>
<rect width="10" height="10" transform="translate(180 30)" fill="white"/>
<rect width="10" height="10" transform="translate(200 30)" fill="white"/>
<rect width="10" height="10" transform="translate(210 30)" fill="white"/>
<rect width="10" height="10" transform="translate(220 30)" fill="white"/>
<rect width="10" height="10" transform="translate(160 40)" fill="white"/>
<rect width="10" height="10" transform="translate(170 40)" fill="white"/>
<rect width="10" height="10" transform="translate(180 40)" fill="white"/>
<rect width="10" height="10" transform="translate(200 40)" fill="white"/>
<rect width="10" height="10" transform="translate(210 40)" fill="white"/>
<rect width="10" height="10" transform="translate(220 40)" fill="#4E4E4E"/>
<rect width="10" height="10" transform="translate(160 50)" fill="white"/>
<rect width="10" height="10" transform="translate(160 60)" fill="white"/>
<rect width="10" height="10" transform="translate(170 50)" fill="white"/>
<rect width="10" height="10" transform="translate(180 50)" fill="white"/>
<rect width="10" height="10" transform="translate(190 40)" fill="white"/>
<rect width="10" height="10" transform="translate(200 50)" fill="white"/>
<rect width="10" height="10" transform="translate(210 50)" fill="white"/>
<rect width="10" height="10" transform="translate(220 50)" fill="white"/>
<rect width="10" height="10" transform="translate(160 70)" fill="#4E4E4E"/>
<rect width="10" height="10" transform="translate(170 60)" fill="white"/>
<rect width="10" height="10" transform="translate(180 60)" fill="white"/>
<rect width="10" height="10" transform="translate(190 50)" fill="white"/>
<rect width="10" height="10" transform="translate(200 60)" fill="white"/>
<rect width="10" height="10" transform="translate(210 60)" fill="white"/>
<rect width="10" height="10" transform="translate(220 60)" fill="white"/>
<rect width="10" height="10" transform="translate(220 70)" fill="#4E4E4E"/>
<rect width="10" height="10" transform="translate(170 70)" fill="#4E4E4E"/>
<rect width="10" height="10" transform="translate(180 70)" fill="#4E4E4E"/>
<rect width="10" height="10" transform="translate(190 60)" fill="#4E4E4E"/>
<rect width="10" height="10" transform="translate(200 70)" fill="#4E4E4E"/>
<rect width="10" height="10" transform="translate(210 70)" fill="#4E4E4E"/>
<rect width="10" height="10" fill="white"/>
<rect width="10" height="10" transform="translate(40)" fill="white"/>
<rect width="10" height="10" transform="translate(30)" fill="white"/>
<rect width="10" height="10" transform="translate(10)" fill="white"/>
<rect width="10" height="10" transform="translate(50)" fill="white"/>
<rect width="10" height="10" transform="translate(20)" fill="white"/>
<rect width="10" height="10" transform="translate(60)" fill="white"/>
<rect width="10" height="10" transform="translate(20 10)" fill="white"/>
<rect width="10" height="10" transform="translate(60 10)" fill="white"/>
<rect width="10" height="10" transform="translate(0 10)" fill="white"/>
<rect width="10" height="10" transform="translate(40 10)" fill="white"/>
<rect width="10" height="10" transform="translate(30 10)" fill="white"/>
<rect width="10" height="10" transform="translate(0 20)" fill="#4E4E4E"/>
<rect width="10" height="10" transform="translate(40 20)" fill="white"/>
<rect width="10" height="10" transform="translate(30 20)" fill="white"/>
<rect width="10" height="10" transform="translate(10 10)" fill="white"/>
<rect width="10" height="10" transform="translate(50 10)" fill="white"/>
<rect width="10" height="10" transform="translate(10 20)" fill="#4E4E4E"/>
<rect width="10" height="10" transform="translate(50 20)" fill="#4E4E4E"/>
<rect width="10" height="10" transform="translate(20 20)" fill="white"/>
<rect width="10" height="10" transform="translate(60 20)" fill="#4E4E4E"/>
<rect width="10" height="10" transform="translate(30 30)" fill="white"/>
<rect width="10" height="10" transform="translate(20 30)" fill="white"/>
<rect width="10" height="10" transform="translate(40 30)" fill="white"/>
<rect width="10" height="10" transform="translate(20 40)" fill="white"/>
<rect width="10" height="10" transform="translate(30 40)" fill="white"/>
<rect width="10" height="10" transform="translate(40 40)" fill="white"/>
<rect width="10" height="10" transform="translate(20 50)" fill="white"/>
<rect width="10" height="10" transform="translate(30 50)" fill="white"/>
<rect width="10" height="10" transform="translate(40 50)" fill="white"/>
<rect width="10" height="10" transform="translate(20 60)" fill="white"/>
<rect width="10" height="10" transform="translate(30 60)" fill="white"/>
<rect width="10" height="10" transform="translate(40 60)" fill="white"/>
<rect width="10" height="10" transform="translate(20 70)" fill="#4E4E4E"/>
<rect width="10" height="10" transform="translate(30 70)" fill="#4E4E4E"/>
<rect width="10" height="10" transform="translate(40 70)" fill="#4E4E4E"/>
<g clip-path="url(#clip0_112_665)">
<rect width="10" height="10" transform="translate(450 70)" fill="#400013"/>
<rect width="10" height="10" transform="translate(410 70)" fill="#400013"/>
<rect width="10" height="10" transform="translate(460 70)" fill="#400013"/>
<rect width="10" height="10" transform="translate(420 70)" fill="#400013"/>
<rect width="10" height="10" transform="translate(460 60)" fill="#A50000"/>
<rect width="10" height="10" transform="translate(420 60)" fill="#A50000"/>
<rect width="10" height="10" transform="translate(450 60)" fill="#A50000"/>
<rect width="10" height="10" transform="translate(410 60)" fill="#A50000"/>
<rect width="10" height="10" transform="translate(440 60)" fill="#A50000"/>
<rect width="10" height="10" transform="translate(440 70)" fill="#400013"/>
<rect width="10" height="10" transform="translate(400 70)" fill="#400013"/>
<rect width="10" height="10" transform="translate(460 50)" fill="#A50000"/>
<rect width="10" height="10" transform="translate(430 50)" fill="#400013"/>
<rect width="10" height="10" transform="translate(450 50)" fill="#A50000"/>
<rect width="10" height="10" transform="translate(420 50)" fill="#A50000"/>
<rect width="10" height="10" transform="translate(440 50)" fill="#A50000"/>
<rect width="10" height="10" transform="translate(410 50)" fill="#A50000"/>
<rect width="10" height="10" transform="translate(400 60)" fill="#A50000"/>
<rect width="10" height="10" transform="translate(430 40)" fill="#A50000"/>
<rect width="10" height="10" transform="translate(450 40)" fill="#A50000"/>
<rect width="10" height="10" transform="translate(420 40)" fill="#A50000"/>
<rect width="10" height="10" transform="translate(440 40)" fill="#A50000"/>
<rect width="10" height="10" transform="translate(410 40)" fill="#A50000"/>
<rect width="10" height="10" transform="translate(400 50)" fill="#A50000"/>
<rect width="10" height="10" transform="translate(430 30)" fill="#A50000"/>
<rect width="10" height="10" transform="translate(450 30)" fill="#400013"/>
<rect width="10" height="10" transform="translate(420 30)" fill="#A50000"/>
<rect width="10" height="10" transform="translate(440 30)" fill="#A50000"/>
<rect width="10" height="10" transform="translate(440 20)" fill="#A50000"/>
<rect width="10" height="10" transform="translate(420 20)" fill="#A50000"/>
<rect width="10" height="10" transform="translate(410 30)" fill="#400013"/>
<rect width="10" height="10" transform="translate(460 20)" fill="#400013"/>
<rect width="10" height="10" transform="translate(410 20)" fill="#A50000"/>
<rect width="10" height="10" transform="translate(450 20)" fill="#A50000"/>
<rect width="10" height="10" transform="translate(400 20)" fill="#400013"/>
<rect width="10" height="10" transform="translate(430 20)" fill="#A50000"/>
<rect width="10" height="10" transform="translate(420 10)" fill="#A50000"/>
<rect width="10" height="10" transform="translate(460 10)" fill="#A50000"/>
<rect width="10" height="10" transform="translate(410 10)" fill="#A50000"/>
<rect width="10" height="10" transform="translate(460)" fill="#A50000"/>
<rect width="10" height="10" transform="translate(410)" fill="#A50000"/>
<rect width="10" height="10" transform="translate(450 10)" fill="#A50000"/>
<rect width="10" height="10" transform="translate(440 10)" fill="#A50000"/>
<rect width="10" height="10" transform="translate(400 10)" fill="#A50000"/>
<rect width="10" height="10" transform="translate(450)" fill="#A50000"/>
<rect width="10" height="10" transform="translate(440)" fill="#A50000"/>
<rect width="10" height="10" transform="translate(400)" fill="#A50000"/>
<rect width="10" height="10" transform="translate(420)" fill="#A50000"/>
</g>
<defs>
<clipPath id="clip0_112_665">
<rect width="80" height="80" fill="white" transform="translate(400)"/>
</clipPath>
</defs>
</svg>
